<?xml version="1.0" encoding="UTF-8" ?>
<!DOCTYPE svg PUBLIC "-//W3C//DTD SVG 1.1//EN" "http://www.w3.org/Graphics/SVG/1.1/DTD/svg11.dtd">
<svg width="425pt" height="86pt" viewBox="0 0 425 86" version="1.1" xmlns="http://www.w3.org/2000/svg">
<g id="#000000c0">
<path fill="#000000" opacity="0.75" d=" M 12.16 0.00 L 21.04 0.00 C 23.92 2.52 22.23 6.30 21.19 9.29 C 12.77 30.72 13.17 55.18 21.31 76.63 C 22.05 79.05 23.41 81.68 22.47 84.23 C 21.60 84.89 20.69 85.48 19.74 86.00 L 14.10 86.00 C 12.17 84.58 10.36 82.89 9.44 80.61 C 4.32 69.13 0.68 56.68 1.19 43.99 C 0.51 28.67 4.74 13.33 12.16 0.00 M 14.35 1.94 C 13.84 1.94 12.82 1.94 12.31 1.94 C 5.98 14.33 2.41 28.09 1.91 41.99 C 2.06 56.48 5.54 70.94 12.41 83.73 C 15.60 84.36 18.85 84.38 22.05 83.83 C 21.95 81.12 20.80 78.64 19.85 76.15 C 12.70 56.16 11.85 33.81 18.45 13.56 C 19.63 9.69 21.48 6.01 22.03 1.96 C 21.43 1.96 20.25 1.95 19.65 1.94 C 19.35 0.03 14.65 -0.02 14.35 1.94 Z" />
</g>
<g id="#000000bb">
<path fill="#000000" opacity="0.73" d=" M 377.75 0.00 L 386.92 0.00 C 391.11 4.80 392.94 11.04 394.93 16.96 C 401.86 38.41 399.65 62.47 389.44 82.51 C 388.59 84.01 387.16 85.02 385.80 86.00 L 379.20 86.00 C 377.98 84.81 375.69 83.56 376.72 81.53 C 379.95 72.91 383.02 64.13 384.01 54.92 C 385.26 39.60 384.74 23.70 378.72 9.34 C 377.31 6.41 376.93 3.16 377.75 0.00 M 377.88 2.18 C 378.24 5.94 380.17 9.26 381.27 12.82 C 387.88 32.67 387.63 54.72 380.54 74.41 C 379.46 77.51 378.10 80.56 377.91 83.88 C 381.12 84.37 384.38 84.37 387.56 83.68 C 394.28 70.86 397.98 56.47 398.02 41.98 C 397.53 28.23 394.13 14.47 387.58 2.35 C 384.64 0.48 380.99 1.27 377.88 2.18 Z" />
</g>
<g id="#b3b3b3ff">
<path fill="#b3b3b3" opacity="1.00" d=" M 14.35 1.94 C 14.65 -0.02 19.35 0.03 19.65 1.94 C 17.88 1.98 16.12 1.98 14.35 1.94 Z" />
</g>
<g id="#ffffffff">
<path fill="#ffffff" opacity="1.00" d=" M 377.88 2.18 C 380.99 1.27 384.64 0.48 387.58 2.35 C 394.13 14.47 397.53 28.23 398.02 41.98 C 397.98 56.47 394.28 70.86 387.56 83.68 C 384.38 84.37 381.12 84.37 377.91 83.88 C 378.10 80.56 379.46 77.51 380.54 74.41 C 387.63 54.72 387.88 32.67 381.27 12.82 C 380.17 9.26 378.24 5.94 377.88 2.18 Z" />
<path fill="#ffffff" opacity="1.00" d=" M 12.31 1.94 C 12.82 1.94 13.84 1.94 14.35 1.94 C 16.12 1.98 17.88 1.98 19.65 1.94 C 20.25 1.95 21.43 1.96 22.03 1.96 C 21.48 6.01 19.63 9.69 18.45 13.56 C 11.85 33.81 12.70 56.16 19.85 76.15 C 20.80 78.64 21.95 81.12 22.05 83.83 C 18.85 84.38 15.60 84.36 12.41 83.73 C 5.54 70.94 2.06 56.48 1.91 41.99 C 2.41 28.09 5.98 14.33 12.31 1.94 Z" />
<path fill="#ffffff" opacity="1.00" d=" M 413.41 24.41 C 415.71 23.68 418.29 23.70 420.61 24.37 C 424.22 26.41 424.39 31.54 423.00 35.01 C 421.39 38.82 416.11 38.49 412.97 37.01 C 410.78 36.33 411.01 33.87 410.94 32.04 C 411.01 29.36 410.25 25.63 413.41 24.41 Z" />
<path fill="#ffffff" opacity="1.00" d=" M 119.74 54.80 C 122.78 53.62 126.60 53.76 129.26 55.76 C 131.69 58.94 130.43 63.25 129.98 66.88 C 129.71 67.15 129.17 67.69 128.90 67.96 C 125.76 68.16 122.48 68.69 119.42 67.72 C 116.90 66.56 116.95 63.35 116.92 61.00 C 116.97 58.73 117.37 55.80 119.74 54.80 Z" />
<path fill="#ffffff" opacity="1.00" d=" M 210.75 54.80 C 213.78 53.61 217.60 53.77 220.26 55.75 C 222.69 58.95 221.44 63.25 220.98 66.87 C 220.71 67.14 220.17 67.69 219.91 67.96 C 216.76 68.16 213.49 68.68 210.42 67.72 C 207.92 66.53 207.93 63.37 207.93 61.00 C 207.98 58.73 208.37 55.81 210.75 54.80 Z" />
<path fill="#ffffff" opacity="1.00" d=" M 413.18 54.98 C 413.96 54.99 415.51 55.01 416.29 55.01 C 416.89 55.01 418.10 55.01 418.71 55.01 C 419.48 55.01 421.04 54.99 421.82 54.98 C 425.21 58.27 423.45 63.40 422.22 67.29 C 419.85 72.01 416.72 76.37 413.41 80.47 C 411.09 81.68 408.34 81.23 405.85 80.98 C 406.75 76.30 409.43 72.28 410.92 67.82 C 412.14 63.61 409.70 58.41 413.18 54.98 Z" />
</g>
<g id="#000000d3">
<path fill="#000000" opacity="0.83" d=" M 261.61 2.64 C 265.93 2.00 270.49 1.71 274.68 3.20 C 274.88 6.13 275.00 9.07 274.96 12.01 C 274.82 30.11 275.07 48.21 274.85 66.31 C 272.94 65.90 274.00 63.35 273.63 61.99 C 273.80 42.71 273.45 23.43 273.83 4.15 L 273.19 3.95 C 269.84 2.76 266.07 2.44 262.68 3.66 C 261.76 4.88 262.10 6.53 261.94 7.95 C 261.91 14.30 262.14 20.65 261.98 27.01 C 258.99 25.28 256.12 23.21 252.76 22.28 C 248.42 21.24 244.16 22.98 240.00 23.99 C 243.03 20.67 247.94 21.13 252.02 21.21 C 255.28 21.28 257.86 23.60 260.99 24.19 C 261.78 17.02 260.60 9.78 261.61 2.64 Z" />
</g>
<g id="#ff00ffff">
<path fill="#ff00ff" opacity="1.00" d=" M 262.68 3.66 C 266.07 2.44 269.84 2.76 273.19 3.95 C 273.37 5.63 273.51 7.31 273.52 9.00 C 273.41 28.48 273.53 47.96 273.46 67.44 C 270.42 67.98 267.32 68.13 264.25 67.93 C 264.12 65.95 263.99 63.96 263.86 61.98 C 259.94 64.92 255.95 68.31 250.89 68.89 C 246.37 69.74 242.08 67.71 238.18 65.70 C 237.48 65.15 236.86 64.52 236.33 63.82 C 234.31 59.81 232.23 55.63 232.05 51.06 C 231.84 44.99 231.47 38.61 233.93 32.90 C 235.27 29.51 237.78 26.81 240.00 23.99 C 244.16 22.98 248.42 21.24 252.76 22.28 C 256.12 23.21 258.99 25.28 261.98 27.01 C 262.14 20.65 261.91 14.30 261.94 7.95 C 262.10 6.53 261.76 4.88 262.68 3.66 M 247.68 33.60 C 247.45 33.89 246.98 34.47 246.75 34.76 C 243.04 38.50 243.20 44.44 243.64 49.34 C 244.11 53.46 246.06 59.03 251.04 59.07 C 255.67 59.80 259.18 55.98 261.73 52.67 C 262.27 47.92 262.23 43.05 261.76 38.29 C 258.95 33.91 252.37 29.12 247.68 33.60 Z" />
<path fill="#ff00ff" opacity="1.00" d=" M 293.70 24.76 C 301.24 20.49 310.93 21.17 318.14 25.82 C 318.88 26.44 319.56 27.12 320.17 27.87 C 323.89 33.71 325.28 40.92 323.73 47.69 C 323.08 47.83 321.77 48.11 321.11 48.24 C 312.70 48.74 304.25 47.74 295.87 48.68 L 294.95 48.75 C 295.50 51.35 296.16 53.99 297.63 56.24 C 297.88 56.51 298.38 57.05 298.63 57.33 C 300.13 58.69 301.89 59.97 304.01 59.99 C 310.14 60.82 316.06 58.83 321.89 57.26 C 322.54 60.03 322.44 62.87 321.74 65.61 C 312.12 69.64 300.07 71.00 290.98 64.94 C 284.34 60.26 283.45 51.29 283.76 43.80 C 283.81 36.41 286.87 28.39 293.70 24.76 M 298.67 32.59 C 298.42 32.89 297.91 33.48 297.66 33.78 C 296.17 35.93 295.59 38.48 295.07 41.00 C 301.07 41.01 307.07 41.09 313.06 40.93 C 313.15 38.15 312.93 35.19 311.12 32.93 C 308.03 29.26 301.91 28.86 298.67 32.59 Z" />
<path fill="#ff00ff" opacity="1.00" d=" M 328.95 24.21 C 332.33 21.83 336.83 23.25 340.68 23.26 C 344.34 33.94 346.84 45.02 351.11 55.48 C 355.18 45.00 357.72 33.93 361.32 23.25 C 364.86 22.86 368.43 22.88 371.98 23.16 C 372.02 25.51 371.86 27.88 371.04 30.11 C 367.13 41.57 363.36 53.09 359.51 64.58 C 358.92 65.80 358.57 67.80 356.85 67.81 C 352.70 68.17 348.47 68.28 344.35 67.70 C 342.27 66.51 341.94 63.90 341.14 61.86 C 337.22 49.27 332.57 36.90 328.95 24.21 Z" />
</g>
<g id="#000201c4">
<path fill="#000201" opacity="0.77" d=" M 154.44 8.55 C 164.56 3.99 177.00 3.76 186.86 9.16 C 194.16 12.93 197.56 21.35 198.63 29.09 C 198.80 36.49 199.46 44.14 197.11 51.30 C 196.07 54.52 194.85 58.08 191.71 59.82 C 197.92 50.40 199.18 38.53 197.30 27.61 C 195.92 20.42 192.28 12.92 185.36 9.66 C 176.93 5.67 166.94 5.38 158.13 8.27 C 152.76 9.97 148.94 14.33 145.21 18.31 C 146.43 13.79 150.64 10.86 154.44 8.55 Z" />
</g>
<g id="#000000c1">
<path fill="#000000" opacity="0.76" d=" M 33.14 10.43 C 32.74 7.40 36.50 6.07 38.97 6.25 C 44.52 6.43 52.12 4.63 55.41 10.51 C 58.68 17.81 60.90 25.55 63.85 32.99 C 65.54 37.03 66.24 41.55 68.54 45.30 C 68.84 45.49 69.44 45.85 69.74 46.04 C 73.93 34.76 78.21 23.51 82.34 12.22 C 83.17 9.71 84.85 7.24 87.61 6.71 C 91.94 5.90 96.42 6.11 100.80 6.41 C 102.39 6.33 103.33 7.65 104.15 8.79 C 98.97 6.87 93.21 6.63 87.86 7.94 C 85.59 8.37 84.32 10.45 83.55 12.43 C 78.71 25.05 74.35 37.88 69.15 50.36 C 64.64 40.01 61.43 29.15 57.39 18.61 C 55.83 14.88 55.14 9.73 50.85 8.11 C 46.28 6.90 41.34 6.83 36.71 7.76 C 34.52 8.05 34.19 10.48 33.55 12.15 C 33.45 11.72 33.25 10.86 33.14 10.43 Z" />
</g>
<g id="#00ff71ff">
<path fill="#00ff71" opacity="1.00" d=" M 158.13 8.27 C 166.94 5.38 176.93 5.67 185.36 9.66 C 192.28 12.92 195.92 20.42 197.30 27.61 C 199.18 38.53 197.92 50.40 191.71 59.82 C 190.90 60.91 189.92 61.88 188.83 62.69 C 179.68 69.31 167.49 70.79 156.88 67.09 C 150.04 65.02 144.59 59.23 142.75 52.35 C 139.84 41.80 140.26 30.32 144.22 20.09 C 144.47 19.65 144.96 18.75 145.21 18.31 C 148.94 14.33 152.76 9.97 158.13 8.27 M 167.33 16.22 C 159.47 16.95 154.39 24.61 153.90 31.99 C 153.59 39.26 152.93 47.32 157.26 53.65 C 161.73 59.98 171.43 60.58 177.71 56.75 C 183.54 52.95 185.17 45.50 185.23 38.99 C 185.37 32.17 185.07 24.25 179.66 19.32 C 176.09 16.95 171.60 15.59 167.33 16.22 Z" />
</g>
<g id="#00ffffff">
<path fill="#00ffff" opacity="1.00" d=" M 36.71 7.76 C 41.34 6.83 46.28 6.90 50.85 8.11 C 55.14 9.73 55.83 14.88 57.39 18.61 C 61.43 29.15 64.64 40.01 69.15 50.36 C 74.35 37.88 78.71 25.05 83.55 12.43 C 84.32 10.45 85.59 8.37 87.86 7.94 C 93.21 6.63 98.97 6.87 104.15 8.79 C 104.02 28.53 104.23 48.27 104.04 68.01 C 100.42 68.03 96.79 68.04 93.18 67.84 C 92.65 50.79 93.36 33.73 92.84 16.68 C 90.42 21.34 88.98 26.40 87.27 31.33 C 83.43 42.17 79.42 52.94 75.79 63.84 C 75.20 65.17 74.86 66.79 73.61 67.67 C 70.08 68.37 66.46 67.89 62.89 68.03 C 62.76 67.71 62.52 67.07 62.40 66.74 C 58.94 55.42 55.00 44.24 51.01 33.09 C 49.01 27.63 47.65 21.93 45.17 16.65 C 44.87 33.81 44.94 50.99 45.16 68.15 C 41.50 68.06 37.83 68.03 34.18 67.82 C 33.76 54.89 34.13 41.94 34.00 29.00 C 33.92 23.38 34.35 17.73 33.55 12.15 C 34.19 10.48 34.52 8.05 36.71 7.76 Z" />
</g>
<g id="#00000095">
<path fill="#000000" opacity="0.58" d=" M 31.93 16.97 C 31.92 14.74 31.96 12.41 33.14 10.43 C 33.25 10.86 33.45 11.72 33.55 12.15 C 34.35 17.73 33.92 23.38 34.00 29.00 C 34.13 41.94 33.76 54.89 34.18 67.82 C 37.83 68.03 41.50 68.06 45.16 68.15 C 41.41 70.09 36.72 70.15 33.07 67.97 C 31.84 66.66 32.09 64.70 31.94 63.05 C 31.96 47.69 31.99 32.33 31.93 16.97 Z" />
</g>
<g id="#00000067">
<path fill="#000000" opacity="0.40" d=" M 104.78 11.08 L 105.80 11.08 C 106.29 24.71 105.88 38.36 106.01 52.00 C 105.97 57.07 106.21 62.14 105.79 67.19 C 104.03 66.67 104.90 64.35 104.58 63.01 C 104.75 45.70 104.37 28.39 104.78 11.08 Z" />
</g>
<g id="#000000be">
<path fill="#000000" opacity="0.75" d=" M 167.33 16.22 C 171.60 15.59 176.09 16.95 179.66 19.32 C 185.07 24.25 185.37 32.17 185.23 38.99 C 185.17 45.50 183.54 52.95 177.71 56.75 C 171.43 60.58 161.73 59.98 157.26 53.65 C 152.93 47.32 153.59 39.26 153.90 31.99 C 154.39 24.61 159.47 16.95 167.33 16.22 M 164.25 18.15 C 158.86 20.16 155.97 25.89 155.13 31.29 C 154.26 37.81 154.31 44.76 157.05 50.86 C 160.21 58.49 171.12 59.82 177.42 55.45 C 182.89 51.52 183.95 44.28 184.31 38.03 C 184.34 32.45 183.54 26.45 180.21 21.80 C 176.51 16.97 169.66 17.02 164.25 18.15 Z" />
<path fill="#000000" opacity="0.75" d=" M 284.90 32.80 C 287.86 25.76 295.32 20.94 302.96 21.17 C 308.47 21.06 315.64 20.90 318.92 26.23 L 318.14 25.82 C 310.93 21.17 301.24 20.49 293.70 24.76 C 286.87 28.39 283.81 36.41 283.76 43.80 C 283.45 51.29 284.34 60.26 290.98 64.94 C 300.07 71.00 312.12 69.64 321.74 65.61 C 322.44 62.87 322.54 60.03 321.89 57.26 C 316.06 58.83 310.14 60.82 304.01 59.99 C 301.89 59.97 300.13 58.69 298.63 57.33 C 302.03 58.06 305.38 59.64 308.93 59.15 C 313.62 58.73 317.94 56.52 322.65 56.18 C 324.05 59.40 324.27 63.31 322.39 66.39 C 315.96 70.13 308.20 70.04 301.00 69.71 C 294.42 69.16 287.35 65.69 284.89 59.21 C 281.12 50.89 281.50 41.16 284.90 32.80 Z" />
<path fill="#000000" opacity="0.75" d=" M 411.87 23.91 C 416.38 22.25 422.52 22.45 425.00 27.28 L 425.00 34.68 C 422.49 39.64 415.83 39.96 411.48 37.53 C 408.09 33.84 408.30 27.41 411.87 23.91 M 413.41 24.41 C 410.25 25.63 411.01 29.36 410.94 32.04 C 411.01 33.87 410.78 36.33 412.97 37.01 C 416.11 38.49 421.39 38.82 423.00 35.01 C 424.39 31.54 424.22 26.41 420.61 24.37 C 418.29 23.70 415.71 23.68 413.41 24.41 Z" />
<path fill="#000000" opacity="0.75" d=" M 250.89 68.89 C 255.95 68.31 259.94 64.92 263.86 61.98 C 263.99 63.96 264.12 65.95 264.25 67.93 C 267.32 68.13 270.42 67.98 273.46 67.44 L 274.30 67.32 C 272.95 69.90 269.37 68.68 267.00 68.96 C 264.47 69.29 262.73 67.38 261.04 65.85 C 255.61 69.80 248.43 71.09 242.05 68.88 C 240.38 68.35 239.15 67.09 238.18 65.70 C 242.08 67.71 246.37 69.74 250.89 68.89 Z" />
</g>
<g id="#000000af">
<path fill="#000000" opacity="0.69" d=" M 45.17 16.65 C 47.65 21.93 49.01 27.63 51.01 33.09 C 55.00 44.24 58.94 55.42 62.40 66.74 C 60.59 65.61 60.17 63.42 59.51 61.56 C 56.63 52.57 53.54 43.66 50.37 34.77 C 49.33 32.08 49.00 29.01 47.07 26.75 C 46.17 37.46 46.89 48.25 46.70 59.00 C 46.44 62.04 47.67 65.78 45.16 68.15 C 44.94 50.99 44.87 33.81 45.17 16.65 Z" />
</g>
<g id="#000000a3">
<path fill="#000000" opacity="0.64" d=" M 87.27 31.33 C 88.98 26.40 90.42 21.34 92.84 16.68 C 93.36 33.73 92.65 50.79 93.18 67.84 C 96.79 68.04 100.42 68.03 104.04 68.01 C 100.67 70.24 96.20 69.98 92.65 68.34 C 91.09 67.58 91.24 65.52 91.05 64.06 C 90.72 51.31 91.44 38.53 90.69 25.80 C 86.58 35.60 83.53 45.84 79.75 55.79 C 78.10 59.83 77.33 64.27 75.05 68.04 C 71.42 70.34 66.59 70.00 62.89 68.03 C 66.46 67.89 70.08 68.37 73.61 67.67 C 74.86 66.79 75.20 65.17 75.79 63.84 C 79.42 52.94 83.43 42.17 87.27 31.33 Z" />
</g>
<g id="#000000bd">
<path fill="#000000" opacity="0.74" d=" M 140.80 27.63 C 141.44 24.96 141.73 21.76 144.22 20.09 C 140.26 30.32 139.84 41.80 142.75 52.35 C 144.59 59.23 150.04 65.02 156.88 67.09 C 167.49 70.79 179.68 69.31 188.83 62.69 C 187.13 65.83 183.63 67.14 180.48 68.35 C 175.21 70.31 169.48 69.80 163.97 69.74 C 155.93 69.48 148.02 65.18 143.91 58.20 C 141.15 53.15 140.35 47.35 139.54 41.73 C 138.86 37.00 140.00 32.28 140.80 27.63 Z" />
</g>
<g id="#000000bc">
<path fill="#000000" opacity="0.74" d=" M 328.81 22.82 C 332.70 20.55 337.42 21.25 341.52 22.50 C 344.80 31.53 347.09 40.89 350.22 49.97 C 350.61 49.97 351.39 49.98 351.79 49.99 C 354.96 40.92 357.13 31.51 360.48 22.49 C 364.81 21.12 369.85 20.51 373.78 23.31 C 373.20 27.79 371.51 32.00 370.12 36.26 C 366.93 45.76 363.80 55.28 360.66 64.79 C 359.97 66.23 359.67 68.41 357.73 68.60 C 353.30 69.59 348.67 69.32 344.22 68.59 C 341.95 68.54 341.41 66.03 340.72 64.34 C 336.82 52.30 332.74 40.32 328.79 28.31 C 328.43 26.57 327.56 24.37 328.81 22.82 M 328.95 24.21 C 332.57 36.90 337.22 49.27 341.14 61.86 C 341.94 63.90 342.27 66.51 344.35 67.70 C 348.47 68.28 352.70 68.17 356.85 67.81 C 358.57 67.80 358.92 65.80 359.51 64.58 C 363.36 53.09 367.13 41.57 371.04 30.11 C 371.86 27.88 372.02 25.51 371.98 23.16 C 368.43 22.88 364.86 22.86 361.32 23.25 C 357.72 33.93 355.18 45.00 351.11 55.48 C 346.84 45.02 344.34 33.94 340.68 23.26 C 336.83 23.25 332.33 21.83 328.95 24.21 Z" />
</g>
<g id="#000000b9">
<path fill="#000000" opacity="0.73" d=" M 232.48 33.42 C 233.81 29.58 236.05 25.61 240.00 23.99 C 237.78 26.81 235.27 29.51 233.93 32.90 C 231.47 38.61 231.84 44.99 232.05 51.06 C 232.23 55.63 234.31 59.81 236.33 63.82 C 232.44 61.34 231.87 56.32 230.86 52.23 C 229.25 45.96 230.62 39.47 232.48 33.42 Z" />
</g>
<g id="#090009bb">
<path fill="#090009" opacity="0.73" d=" M 319.76 27.09 C 322.89 28.60 323.70 32.22 324.68 35.23 C 325.50 38.36 326.41 41.65 325.82 44.90 C 325.10 47.07 323.57 49.80 320.94 49.67 C 312.90 49.96 304.84 49.37 296.80 49.90 C 297.05 52.01 297.36 54.12 297.63 56.24 C 296.16 53.99 295.50 51.35 294.95 48.75 L 295.87 48.68 C 304.27 48.28 312.75 49.34 321.11 48.24 C 321.77 48.11 323.08 47.83 323.73 47.69 C 325.28 40.92 323.89 33.71 320.17 27.87 L 319.76 27.09 Z" />
</g>
<g id="#000000d0">
<path fill="#000000" opacity="0.82" d=" M 298.67 32.59 C 301.91 28.86 308.03 29.26 311.12 32.93 C 312.93 35.19 313.15 38.15 313.06 40.93 C 307.07 41.09 301.07 41.01 295.07 41.00 C 295.59 38.48 296.17 35.93 297.66 33.78 C 297.34 35.84 297.12 37.90 296.90 39.97 C 301.99 40.44 307.11 40.45 312.20 39.93 C 311.94 37.09 311.14 33.91 308.55 32.33 C 305.41 30.87 301.88 32.02 298.67 32.59 Z" />
</g>
<g id="#0d000dd2">
<path fill="#0d000d" opacity="0.82" d=" M 247.68 33.60 C 252.37 29.12 258.95 33.91 261.76 38.29 C 262.23 43.05 262.27 47.92 261.73 52.67 C 259.18 55.98 255.67 59.80 251.04 59.07 C 246.06 59.03 244.11 53.46 243.64 49.34 C 243.20 44.44 243.04 38.50 246.75 34.76 C 244.81 40.40 243.82 46.63 245.46 52.47 C 246.33 55.66 249.31 58.73 252.85 58.11 C 256.20 57.19 259.14 54.69 260.75 51.62 C 261.62 48.49 261.46 45.17 261.25 41.97 C 261.23 38.21 258.10 35.52 255.16 33.71 C 252.89 32.20 250.12 33.28 247.68 33.60 Z" />
</g>
<g id="#800080ff">
<path fill="#800080" opacity="1.00" d=" M 295.87 48.68 C 304.25 47.74 312.70 48.74 321.11 48.24 C 312.75 49.34 304.27 48.28 295.87 48.68 Z" />
</g>
<g id="#080808ca">
<path fill="#080808" opacity="0.79" d=" M 119.47 53.58 C 123.39 52.89 129.26 52.23 131.16 56.72 C 132.09 59.99 132.58 64.24 129.98 66.88 C 130.43 63.25 131.69 58.94 129.26 55.76 C 126.60 53.76 122.78 53.62 119.74 54.80 C 117.37 55.80 116.97 58.73 116.92 61.00 C 116.95 63.35 116.90 66.56 119.42 67.72 C 122.48 68.69 125.76 68.16 128.90 67.96 C 125.52 71.24 119.28 70.05 116.53 66.53 C 116.21 62.25 114.68 55.93 119.47 53.58 Z" />
<path fill="#080808" opacity="0.79" d=" M 207.21 59.01 C 206.95 56.20 209.19 53.36 212.07 53.26 C 215.60 52.96 220.61 52.69 222.16 56.73 C 223.09 59.99 223.58 64.23 220.98 66.87 C 221.44 63.25 222.69 58.95 220.26 55.75 C 217.60 53.77 213.78 53.61 210.75 54.80 C 208.37 55.81 207.98 58.73 207.93 61.00 C 207.93 63.37 207.92 66.53 210.42 67.72 C 213.49 68.68 216.76 68.16 219.91 67.96 C 217.18 70.73 212.67 70.13 209.55 68.39 C 206.05 66.68 207.41 62.12 207.21 59.01 Z" />
</g>
<g id="#020202b7">
<path fill="#020202" opacity="0.72" d=" M 412.40 54.43 C 416.45 51.98 421.49 53.34 425.00 56.11 L 425.00 63.52 C 422.66 69.81 419.10 75.65 414.72 80.72 C 412.21 83.37 406.65 84.09 404.51 80.68 C 405.62 74.56 410.64 69.55 410.22 63.03 C 410.59 60.17 409.38 56.19 412.40 54.43 M 416.29 55.01 C 415.51 55.01 413.96 54.99 413.18 54.98 C 409.70 58.41 412.14 63.61 410.92 67.82 C 409.43 72.28 406.75 76.30 405.85 80.98 C 408.34 81.23 411.09 81.68 413.41 80.47 C 416.72 76.37 419.85 72.01 422.22 67.29 C 423.45 63.40 425.21 58.27 421.82 54.98 C 421.04 54.99 419.48 55.01 418.71 55.01 C 419.37 53.18 415.62 53.18 416.29 55.01 Z" />
</g>
<g id="#818181ff">
<path fill="#818181" opacity="1.00" d=" M 416.29 55.01 C 415.62 53.18 419.37 53.18 418.71 55.01 C 418.10 55.01 416.89 55.01 416.29 55.01 Z" />
</g>
</svg>
