<?xml version="1.0" encoding="UTF-8" ?>
<!DOCTYPE svg PUBLIC "-//W3C//DTD SVG 1.1//EN" "http://www.w3.org/Graphics/SVG/1.1/DTD/svg11.dtd">
<svg width="1182pt" height="146pt" viewBox="0 0 1182 146" version="1.1" xmlns="http://www.w3.org/2000/svg">
<g id="#ffffffff">
<path fill="#ffffff" opacity="1.00" d=" M 25.54 43.53 C 30.45 34.13 37.87 26.36 45.73 19.38 C 48.18 21.86 50.64 24.32 53.12 26.76 C 40.57 38.10 31.14 53.83 30.61 71.07 C 29.38 90.46 38.77 109.30 53.13 121.96 C 50.54 124.59 47.95 127.22 45.37 129.85 C 33.27 119.54 23.16 106.15 19.35 90.50 C 15.62 74.80 17.59 57.65 25.54 43.53 Z" />
<path fill="#ffffff" opacity="1.00" d=" M 1071.12 27.11 C 1073.69 24.50 1076.27 21.89 1078.89 19.32 C 1087.70 26.92 1095.60 35.84 1100.55 46.45 C 1108.16 62.55 1108.65 81.76 1102.19 98.31 C 1097.41 110.76 1088.72 121.28 1078.68 129.87 C 1076.18 127.40 1073.70 124.92 1071.21 122.45 C 1081.54 113.11 1089.78 100.96 1092.61 87.17 C 1095.59 73.19 1093.13 58.23 1086.19 45.76 C 1082.37 38.67 1077.04 32.52 1071.12 27.11 Z" />
<path fill="#ffffff" opacity="1.00" d=" M 1152.14 47.23 C 1157.81 44.48 1165.04 48.81 1165.83 54.92 C 1166.91 60.67 1161.81 66.59 1155.97 66.43 C 1150.23 66.52 1145.10 60.78 1146.12 55.08 C 1146.53 51.64 1149.02 48.65 1152.14 47.23 Z" />
<path fill="#ffffff" opacity="1.00" d=" M 1150.54 86.30 C 1153.24 84.20 1157.14 84.31 1160.13 85.74 C 1163.51 87.65 1165.81 91.12 1166.67 94.87 C 1168.51 103.01 1166.17 112.18 1160.04 117.99 C 1153.77 123.85 1144.95 125.91 1136.59 126.08 C 1136.58 123.32 1136.58 120.57 1136.59 117.81 C 1140.90 117.59 1145.51 117.50 1149.25 115.02 C 1152.03 113.45 1153.75 110.09 1153.12 106.91 C 1152.81 103.53 1149.94 101.37 1148.13 98.77 C 1145.36 94.90 1146.58 88.90 1150.54 86.30 Z" />
</g>
<g id="#000000ff">
<path fill="#000000" opacity="1.00" d=" M 45.75 17.96 C 50.16 21.99 54.38 26.20 58.41 30.61 C 50.76 37.74 43.86 45.97 39.84 55.73 C 33.05 71.62 34.18 90.48 42.38 105.65 C 46.20 113.40 52.32 119.63 58.38 125.65 C 55.37 128.81 52.61 132.38 49.11 134.93 C 37.55 125.00 26.66 113.46 21.00 99.07 C 14.61 82.85 15.03 64.08 22.06 48.13 C 27.27 36.27 35.94 26.27 45.75 17.96 M 25.54 43.53 C 17.59 57.65 15.62 74.80 19.35 90.50 C 23.16 106.15 33.27 119.54 45.37 129.85 C 47.95 127.22 50.54 124.59 53.13 121.96 C 38.77 109.30 29.38 90.46 30.61 71.07 C 31.14 53.83 40.57 38.10 53.12 26.76 C 50.64 24.32 48.18 21.86 45.73 19.38 C 37.87 26.36 30.45 34.13 25.54 43.53 Z" />
<path fill="#000000" opacity="1.00" d=" M 1069.77 27.10 C 1072.81 24.03 1075.85 20.97 1078.90 17.91 C 1087.54 25.71 1096.19 33.83 1102.14 43.96 C 1108.90 54.97 1112.11 68.05 1111.50 80.94 C 1111.02 95.55 1105.35 109.81 1096.22 121.16 C 1092.23 126.36 1087.30 130.70 1082.56 135.18 C 1078.10 131.11 1073.83 126.85 1069.68 122.47 C 1078.58 114.32 1086.31 104.50 1090.01 92.86 C 1095.04 77.67 1093.16 60.50 1085.42 46.55 C 1081.56 39.08 1075.63 33.01 1069.77 27.10 M 1071.12 27.11 C 1077.04 32.52 1082.37 38.67 1086.19 45.76 C 1093.13 58.23 1095.59 73.19 1092.61 87.17 C 1089.78 100.96 1081.54 113.11 1071.21 122.45 C 1073.70 124.92 1076.18 127.40 1078.68 129.87 C 1088.72 121.28 1097.41 110.76 1102.19 98.31 C 1108.65 81.76 1108.16 62.55 1100.55 46.45 C 1095.60 35.84 1087.70 26.92 1078.89 19.32 C 1076.27 21.89 1073.69 24.50 1071.12 27.11 Z" />
<path fill="#000000" opacity="1.00" d=" M 692.45 20.71 C 696.24 19.60 700.31 21.27 702.75 24.26 C 705.79 27.00 709.13 30.40 708.47 34.90 C 708.12 42.13 698.66 46.72 692.97 41.93 C 689.95 38.72 685.41 35.99 685.11 31.13 C 684.51 26.47 687.77 21.61 692.45 20.71 M 691.21 22.18 C 687.90 23.69 685.71 27.34 686.17 30.99 C 686.39 36.13 692.02 40.02 696.94 38.59 C 701.66 37.61 704.68 32.29 703.20 27.72 C 701.98 22.69 695.82 19.95 691.21 22.18 Z" />
<path fill="#000000" opacity="1.00" d=" M 890.44 20.71 C 894.23 19.60 898.31 21.26 900.74 24.26 C 903.80 27.01 907.16 30.44 906.47 34.97 C 906.06 42.17 896.63 46.70 890.97 41.93 C 887.94 38.73 883.41 35.99 883.11 31.13 C 882.51 26.47 885.76 21.62 890.44 20.71 M 889.19 22.18 C 885.90 23.70 883.72 27.34 884.17 30.97 C 884.37 35.80 889.38 39.63 894.10 38.75 C 898.92 38.22 902.50 33.17 901.38 28.45 C 900.55 23.03 894.06 19.79 889.19 22.18 Z" />
<path fill="#000000" opacity="1.00" d=" M 272.64 22.71 C 277.73 22.66 282.83 22.69 287.93 22.69 C 287.96 23.96 288.00 25.22 288.05 26.49 C 289.31 26.52 290.58 26.55 291.84 26.59 C 291.82 33.97 291.96 41.36 291.76 48.74 C 297.38 44.67 304.94 43.73 311.51 45.73 C 315.71 46.95 318.58 50.42 321.63 53.33 C 325.93 57.71 327.29 64.09 327.28 70.04 C 327.36 83.45 327.29 96.85 327.31 110.26 C 322.19 110.36 317.07 110.30 311.95 110.31 C 311.94 109.36 311.93 107.45 311.92 106.50 C 310.66 106.51 309.40 106.53 308.14 106.55 C 308.07 94.03 308.11 81.52 308.12 69.00 C 308.14 66.59 307.82 64.18 307.28 61.83 C 300.20 61.19 295.51 67.36 291.81 72.46 C 291.92 85.06 291.83 97.66 291.85 110.26 C 286.70 110.33 281.54 110.39 276.39 110.21 C 276.40 109.29 276.42 107.46 276.43 106.54 C 275.16 106.52 273.89 106.51 272.63 106.50 C 272.62 78.57 272.61 50.64 272.64 22.71 M 273.64 23.69 C 273.62 50.95 273.63 78.21 273.63 105.47 C 278.06 105.48 282.49 105.48 286.92 105.47 C 286.92 93.99 286.93 82.51 286.90 71.04 C 286.41 67.42 289.43 64.96 291.52 62.49 C 294.68 58.88 299.60 55.53 304.56 57.54 C 308.67 59.21 309.05 64.19 309.15 68.00 C 309.20 80.48 309.18 92.96 309.15 105.44 C 313.57 105.49 318.00 105.49 322.43 105.47 C 322.42 92.65 322.45 79.82 322.42 67.00 C 322.41 61.04 321.37 54.51 316.93 50.15 C 311.76 45.21 303.68 44.80 297.21 47.03 C 292.66 48.49 289.63 52.34 286.22 55.44 C 287.04 44.87 286.98 34.28 286.92 23.69 C 282.49 23.68 278.06 23.68 273.64 23.69 Z" />
<path fill="#000000" opacity="1.00" d=" M 605.02 22.70 C 615.84 22.68 626.66 22.68 637.48 22.69 C 637.51 23.94 637.54 25.19 637.58 26.43 C 638.83 26.49 640.10 26.55 641.36 26.62 C 641.39 49.19 641.36 71.76 641.38 94.33 C 645.83 94.32 650.29 94.33 654.75 94.31 C 654.73 95.57 654.73 96.83 654.73 98.09 C 655.65 98.09 657.48 98.10 658.40 98.10 C 658.56 102.16 658.49 106.23 658.49 110.30 C 641.26 110.33 624.03 110.32 606.80 110.30 C 606.76 109.04 606.74 107.78 606.72 106.53 C 605.46 106.52 604.22 106.51 602.98 106.50 C 602.97 102.44 602.97 98.38 602.99 94.33 C 609.27 94.32 615.56 94.33 621.84 94.32 C 621.84 75.79 621.84 57.26 621.84 38.73 C 617.52 38.72 613.20 38.73 608.89 38.71 C 608.84 37.44 608.80 36.17 608.78 34.89 C 607.52 34.89 606.27 34.89 605.03 34.88 C 605.01 30.82 605.02 26.76 605.02 22.70 M 606.06 23.69 C 606.06 27.07 606.06 30.45 606.08 33.83 C 611.69 33.82 617.31 33.80 622.93 33.85 C 622.76 54.37 622.94 74.88 622.82 95.40 C 616.55 95.37 610.28 95.38 604.01 95.39 C 604.01 98.75 604.01 102.11 604.02 105.48 C 620.55 105.50 637.08 105.44 653.61 105.51 C 653.66 102.14 653.67 98.76 653.66 95.39 C 647.95 95.39 642.25 95.37 636.54 95.40 C 636.42 71.50 636.54 47.59 636.49 23.69 C 626.34 23.69 616.20 23.68 606.06 23.69 Z" />
<path fill="#000000" opacity="1.00" d=" M 217.93 30.82 C 223.17 29.49 228.38 28.01 233.65 26.82 C 233.64 28.33 233.63 29.85 233.61 31.36 C 234.57 31.20 236.47 30.88 237.42 30.72 C 237.46 35.80 237.44 40.87 237.43 45.94 C 243.88 45.97 250.34 45.92 256.79 45.97 C 256.79 46.89 256.79 48.73 256.79 49.65 C 258.04 49.74 259.30 49.83 260.56 49.94 C 260.60 53.93 260.60 57.93 260.57 61.92 C 252.86 62.02 245.14 61.90 237.43 61.99 C 237.45 70.66 237.43 79.32 237.44 87.99 C 237.54 90.18 237.57 92.51 238.49 94.54 C 244.44 96.43 250.85 94.55 256.78 93.35 C 256.79 94.87 256.79 96.40 256.79 97.92 C 258.04 97.70 259.28 97.49 260.53 97.27 C 260.62 101.39 260.59 105.50 260.57 109.62 C 251.42 111.64 241.52 113.01 232.51 109.66 C 228.30 108.13 225.48 104.53 222.42 101.47 C 218.87 97.59 218.05 92.06 217.96 86.99 C 217.89 78.65 217.96 70.31 217.93 61.96 C 213.93 61.96 209.92 61.96 205.92 61.96 C 205.83 60.67 205.75 59.39 205.68 58.10 C 204.43 58.11 203.18 58.12 201.94 58.13 C 201.94 54.07 201.94 50.01 201.94 45.95 C 207.27 45.95 212.60 45.95 217.93 45.95 C 217.93 40.91 217.93 35.87 217.93 30.82 M 218.96 31.63 C 218.97 36.75 218.97 41.87 218.96 46.99 C 213.63 46.99 208.30 46.98 202.97 46.99 C 202.97 50.36 202.97 53.73 202.98 57.10 C 208.31 57.04 213.64 57.04 218.98 57.06 C 219.05 67.77 218.77 78.49 219.11 89.19 C 219.29 95.18 221.94 101.65 227.70 104.24 C 236.49 108.29 246.52 106.69 255.69 105.00 C 255.73 101.55 255.73 98.09 255.73 94.65 C 250.28 95.78 244.58 97.08 239.02 95.95 C 234.49 95.02 232.59 90.05 232.65 85.89 C 232.47 76.28 232.62 66.66 232.60 57.05 C 240.31 57.03 248.02 57.10 255.74 57.01 C 255.73 53.68 255.73 50.35 255.74 47.02 C 248.02 46.95 240.31 47.00 232.59 46.99 C 232.58 40.69 232.57 34.40 232.60 28.10 C 228.05 29.25 223.50 30.44 218.96 31.63 Z" />
<path fill="#000000" opacity="1.00" d=" M 560.58 27.76 C 567.90 27.36 575.61 28.93 581.42 33.61 C 586.13 37.94 590.99 42.52 593.31 48.64 C 597.49 59.26 597.76 71.06 596.25 82.24 C 594.75 92.81 589.35 103.69 579.37 108.54 C 570.41 112.78 559.42 112.68 550.50 108.38 C 541.04 102.68 533.62 93.09 531.96 81.99 C 529.78 68.84 529.94 54.47 536.40 42.46 C 541.08 33.65 550.66 28.01 560.58 27.76 M 556.24 29.31 C 549.42 30.55 543.15 34.45 539.16 40.14 C 533.20 48.44 531.78 59.02 531.74 68.99 C 531.92 78.86 533.42 89.38 539.64 97.40 C 544.42 103.58 552.30 106.54 559.95 106.67 C 569.51 107.25 579.62 103.19 585.01 95.05 C 591.61 85.46 592.65 73.29 592.01 61.98 C 591.43 52.84 589.30 43.09 582.72 36.32 C 576.04 29.28 565.43 27.69 556.24 29.31 Z" />
<path fill="#000000" opacity="1.00" d=" M 69.07 106.51 C 70.37 80.64 71.59 54.77 72.89 28.90 C 78.62 28.90 84.34 28.90 90.07 28.90 C 90.45 30.13 90.83 31.36 91.22 32.59 C 91.89 32.65 93.23 32.77 93.91 32.83 C 96.35 40.54 98.67 48.29 101.14 55.99 C 103.71 46.91 106.77 37.99 109.52 28.96 C 115.35 28.83 121.19 28.92 127.03 28.90 C 127.09 30.14 127.14 31.39 127.20 32.64 C 128.44 32.68 129.67 32.73 130.91 32.79 C 132.15 58.62 133.46 84.46 134.74 110.29 C 130.16 110.33 125.57 110.31 120.98 110.31 C 120.93 109.36 120.82 107.46 120.76 106.50 C 119.54 106.51 118.33 106.52 117.11 106.53 C 116.64 91.88 116.19 77.22 115.64 62.57 C 113.36 71.00 110.35 79.21 107.75 87.54 C 104.56 87.53 101.37 87.69 98.20 87.47 C 97.56 86.28 97.12 85.01 96.59 83.78 C 95.97 83.78 94.74 83.77 94.12 83.77 C 91.89 76.27 89.65 68.79 87.50 61.27 C 87.34 77.60 86.70 93.94 86.24 110.27 C 81.82 110.34 77.39 110.31 72.97 110.31 C 73.00 109.36 73.06 107.47 73.09 106.52 C 71.75 106.52 70.41 106.51 69.07 106.51 M 73.84 29.93 C 72.68 55.11 71.37 80.29 70.18 105.47 C 73.90 105.48 77.62 105.48 81.35 105.48 C 82.07 85.12 82.41 64.75 83.24 44.40 C 83.89 45.57 84.61 46.75 84.93 48.07 C 87.93 59.70 91.51 71.16 94.86 82.69 C 97.61 82.69 100.37 82.68 103.12 82.67 C 107.37 69.92 111.28 57.06 115.65 44.36 C 115.91 45.55 116.22 46.73 116.30 47.94 C 116.90 67.13 117.40 86.32 118.17 105.50 C 122.04 105.47 125.91 105.47 129.78 105.49 C 128.54 80.30 127.24 55.12 126.05 29.93 C 120.78 29.93 115.51 29.85 110.24 30.03 C 108.13 37.01 105.87 43.94 103.70 50.89 C 102.25 55.41 101.46 60.14 99.52 64.50 C 96.39 52.90 92.90 41.40 89.30 29.93 C 84.15 29.91 79.00 29.92 73.84 29.93 Z" />
<path fill="#000000" opacity="1.00" d=" M 557.26 41.33 C 563.04 39.67 570.31 41.02 573.67 46.44 C 577.41 52.58 577.82 60.04 578.05 67.04 C 577.99 74.40 577.70 82.28 573.73 88.73 C 568.58 97.25 553.76 96.76 549.50 87.61 C 545.33 78.84 545.63 68.74 546.31 59.28 C 547.03 52.21 549.69 43.65 557.26 41.33 M 560.41 46.54 C 556.32 48.26 553.74 52.31 552.58 56.44 C 550.52 63.44 550.67 70.86 551.10 78.07 C 551.78 82.85 552.03 88.19 555.25 92.07 C 561.27 95.58 570.17 93.66 573.44 87.24 C 577.28 79.76 577.16 71.02 576.87 62.82 C 576.36 57.50 575.89 51.73 572.75 47.22 C 569.00 45.24 564.37 45.13 560.41 46.54 Z" />
<path fill="#000000" opacity="1.00" d=" M 143.50 48.70 C 154.47 44.72 166.72 43.25 178.10 46.31 C 183.37 47.58 187.06 51.75 190.69 55.45 C 194.10 59.46 195.11 64.90 195.06 70.03 C 195.07 83.44 195.06 96.85 195.06 110.27 C 190.64 110.34 186.22 110.32 181.81 110.30 C 181.74 109.03 181.67 107.76 181.61 106.49 C 180.29 106.52 178.97 106.55 177.66 106.58 C 170.71 111.64 161.11 113.21 153.06 110.03 C 149.53 108.73 147.14 105.71 144.46 103.24 C 139.32 98.50 137.96 90.75 139.53 84.15 C 141.11 77.95 146.56 73.52 152.42 71.52 C 159.94 68.67 168.10 69.01 176.00 68.94 C 175.45 66.27 176.78 61.58 173.13 60.90 C 164.89 59.29 156.46 61.55 148.76 64.49 C 146.18 65.79 147.72 61.27 147.19 59.88 C 145.97 60.33 144.74 60.79 143.51 61.22 C 143.48 57.05 143.50 52.88 143.50 48.70 M 144.46 49.58 C 144.53 52.97 144.53 56.36 144.50 59.74 C 152.89 56.39 162.51 53.88 171.40 56.64 C 177.02 58.52 176.94 65.14 177.02 70.00 C 167.91 70.04 158.28 69.56 149.90 73.74 C 145.44 75.83 141.68 79.69 140.51 84.56 C 138.96 91.25 140.60 99.32 146.47 103.47 C 152.25 107.58 160.02 107.40 166.54 105.38 C 171.29 104.03 174.72 100.33 178.61 97.52 C 178.80 100.17 178.91 102.82 179.00 105.48 C 182.72 105.48 186.43 105.48 190.14 105.48 C 190.15 92.65 190.13 79.82 190.16 66.99 C 190.18 62.28 189.73 57.22 186.82 53.31 C 183.63 48.99 178.29 46.99 173.13 46.26 C 163.51 44.94 153.52 46.08 144.46 49.58 Z" />
<path fill="#000000" opacity="1.00" d=" M 344.40 53.58 C 351.78 44.93 364.58 42.88 375.05 46.25 C 381.06 48.09 385.49 52.85 389.58 57.37 C 395.67 64.85 395.77 75.06 394.97 84.20 C 381.92 84.18 368.87 84.19 355.83 84.19 C 356.20 87.10 356.49 90.27 358.38 92.66 C 362.59 95.64 368.08 95.54 373.02 95.07 C 378.17 94.84 383.23 93.73 388.21 92.43 C 388.26 93.99 388.30 95.56 388.33 97.13 C 389.57 96.82 390.82 96.53 392.07 96.25 C 392.16 100.38 392.13 104.51 392.11 108.65 C 379.30 111.69 364.59 114.23 352.58 107.32 C 345.88 102.38 339.43 95.96 337.66 87.50 C 335.14 76.01 336.56 62.80 344.40 53.58 M 343.85 55.96 C 337.62 64.56 336.54 75.90 338.41 86.10 C 339.92 94.22 345.42 101.74 353.35 104.56 C 364.24 108.54 376.18 106.50 387.18 104.03 C 387.20 100.59 387.24 97.15 387.30 93.71 C 382.34 95.05 377.27 95.90 372.14 96.20 C 366.51 96.76 360.18 96.22 355.84 92.19 C 352.16 88.98 351.03 83.97 350.91 79.30 C 363.99 79.31 377.07 79.30 390.14 79.30 C 391.05 70.05 390.39 59.52 383.45 52.56 C 372.63 42.27 352.64 43.67 343.85 55.96 Z" />
<path fill="#000000" opacity="1.00" d=" M 489.10 45.54 C 498.11 43.89 507.38 44.81 516.30 46.60 C 516.31 47.40 516.33 48.98 516.35 49.77 C 517.58 49.96 518.81 50.15 520.06 50.34 C 520.17 54.62 520.12 58.91 520.12 63.19 C 512.99 61.02 505.46 59.67 498.02 60.42 C 494.96 60.69 491.14 63.09 492.28 66.62 C 498.40 69.65 505.38 70.46 511.46 73.62 C 515.13 75.37 517.85 78.49 520.67 81.32 C 524.88 85.63 525.17 92.36 523.73 97.91 C 521.41 105.11 514.21 109.33 507.15 110.74 C 496.62 112.71 485.76 111.48 475.41 109.12 C 475.41 108.37 475.41 106.87 475.41 106.12 C 474.14 105.87 472.88 105.62 471.62 105.37 C 471.65 100.69 471.51 96.00 471.74 91.32 C 476.81 93.45 482.17 94.70 487.56 95.66 L 485.79 96.18 C 481.25 95.76 476.91 94.32 472.62 92.85 C 472.63 96.71 472.62 100.57 472.59 104.43 C 485.13 106.91 499.13 108.97 511.00 102.95 C 520.13 98.58 522.83 84.69 515.49 77.57 C 508.13 71.26 497.65 71.31 489.58 66.34 C 486.81 64.78 486.32 60.66 488.39 58.34 C 490.47 55.92 493.86 55.34 496.90 55.24 C 503.09 55.20 509.25 56.24 515.21 57.92 C 515.22 54.60 515.48 51.26 515.09 47.95 C 513.02 46.48 510.03 46.68 507.54 46.20 C 497.74 45.28 486.60 45.01 478.43 51.38 C 471.26 56.70 470.63 68.67 477.47 74.50 C 484.69 80.57 494.93 80.30 502.70 85.32 C 506.07 87.29 505.70 92.56 502.55 94.56 C 497.77 97.75 491.60 96.85 486.21 96.23 C 490.72 94.65 496.01 96.93 500.53 94.60 C 503.04 93.85 503.99 91.36 504.27 88.99 C 497.66 85.75 490.12 84.94 483.68 81.30 C 480.71 79.67 478.55 77.00 476.16 74.69 C 471.25 70.01 470.46 62.08 473.24 56.09 C 476.18 50.02 482.78 46.82 489.10 45.54 Z" />
<path fill="#000000" opacity="1.00" d=" M 815.78 46.85 C 824.87 43.37 836.11 43.93 844.03 49.97 C 847.92 53.41 852.03 56.91 854.30 61.70 C 857.83 68.62 857.51 76.67 856.97 84.20 C 843.92 84.18 830.88 84.19 817.83 84.19 C 818.19 87.11 818.49 90.28 820.39 92.67 C 824.61 95.65 830.11 95.54 835.06 95.07 C 840.21 94.84 845.25 93.70 850.23 92.44 C 850.26 94.00 850.29 95.56 850.31 97.12 C 851.55 96.82 852.80 96.53 854.07 96.26 C 854.15 100.39 854.13 104.53 854.09 108.66 C 843.08 111.36 831.24 113.24 820.16 109.91 C 814.09 108.13 809.62 103.46 805.46 98.97 C 799.03 91.70 797.86 81.34 798.84 72.03 C 799.81 61.57 805.65 50.88 815.78 46.85 M 805.84 55.99 C 799.61 64.58 798.54 75.93 800.41 86.12 C 801.94 94.25 807.45 101.76 815.39 104.57 C 826.27 108.53 838.21 106.51 849.19 104.02 C 849.20 100.58 849.24 97.15 849.30 93.71 C 844.12 95.12 838.81 95.96 833.45 96.25 C 827.82 96.78 821.48 95.96 817.35 91.72 C 814.01 88.51 813.06 83.75 812.91 79.30 C 825.98 79.30 839.06 79.31 852.14 79.30 C 853.05 70.04 852.39 59.49 845.42 52.53 C 834.59 42.26 814.61 43.68 805.84 55.99 Z" />
<path fill="#000000" opacity="1.00" d=" M 952.92 49.84 C 960.70 43.23 974.17 42.47 981.29 50.47 C 983.42 52.75 985.91 54.82 987.33 57.68 C 989.87 62.69 990.18 68.43 990.18 73.95 C 985.09 73.97 980.01 73.97 974.93 73.96 C 974.82 72.68 974.72 71.41 974.64 70.13 C 973.42 70.13 972.22 70.13 971.02 70.13 C 970.97 67.29 970.74 64.46 970.17 61.68 C 962.96 60.61 958.30 67.15 954.56 72.22 C 954.53 84.91 954.60 97.61 954.53 110.30 C 949.32 110.32 944.11 110.31 938.91 110.31 C 938.84 109.04 938.80 107.77 938.76 106.50 C 937.50 106.51 936.26 106.51 935.02 106.52 C 935.02 86.33 935.02 66.15 935.02 45.96 C 939.67 45.94 944.33 45.95 948.99 45.95 C 949.05 47.20 949.12 48.45 949.21 49.70 C 950.14 49.74 951.99 49.81 952.92 49.84 M 958.61 47.53 C 954.33 49.15 951.53 52.90 948.62 56.21 C 948.32 53.15 948.15 50.07 948.02 46.99 C 944.03 46.98 940.05 46.98 936.07 46.99 C 936.06 66.49 936.07 85.98 936.06 105.47 C 940.57 105.47 945.08 105.47 949.60 105.52 C 949.79 93.67 949.60 81.81 949.68 69.96 C 949.60 67.01 952.10 64.92 953.75 62.75 C 957.00 58.78 962.36 55.15 967.63 57.39 C 971.79 59.64 971.76 65.01 972.13 69.11 C 976.52 69.06 980.91 69.05 985.30 69.05 C 985.19 62.53 984.51 55.22 979.64 50.36 C 974.25 44.85 965.36 44.75 958.61 47.53 Z" />
<path fill="#000000" opacity="1.00" d=" M 1001.50 48.70 C 1012.48 44.72 1024.73 43.24 1036.12 46.32 C 1041.38 47.59 1045.06 51.75 1048.69 55.45 C 1052.83 60.25 1053.23 66.92 1053.07 72.97 C 1053.05 85.40 1053.07 97.84 1053.06 110.27 C 1048.64 110.34 1044.22 110.31 1039.81 110.30 C 1039.73 109.03 1039.66 107.76 1039.61 106.49 C 1038.26 106.52 1036.93 106.55 1035.61 106.60 C 1028.68 111.67 1019.07 113.19 1011.04 110.03 C 1007.53 108.72 1005.15 105.73 1002.49 103.27 C 997.32 98.52 995.94 90.72 997.54 84.10 C 999.13 77.94 1004.55 73.53 1010.38 71.53 C 1017.91 68.67 1026.08 69.01 1034.00 68.94 C 1033.55 66.06 1034.69 61.03 1030.53 60.74 C 1022.00 59.46 1013.33 61.71 1005.52 65.08 C 1005.36 63.35 1005.25 61.62 1005.17 59.89 C 1003.93 60.34 1002.73 60.79 1001.51 61.22 C 1001.48 57.05 1001.50 52.87 1001.50 48.70 M 1002.47 49.56 C 1002.52 52.95 1002.52 56.35 1002.50 59.75 C 1010.87 56.40 1020.46 53.90 1029.34 56.61 C 1035.00 58.47 1034.95 65.11 1035.02 69.99 C 1027.06 70.08 1018.86 69.62 1011.24 72.34 C 1005.69 74.17 1000.34 78.05 998.70 83.90 C 996.81 90.74 998.43 99.22 1004.51 103.49 C 1010.29 107.59 1018.06 107.39 1024.59 105.36 C 1029.31 104.01 1032.70 100.32 1036.60 97.56 C 1036.78 100.20 1036.90 102.84 1037.01 105.48 C 1040.71 105.48 1044.42 105.48 1048.14 105.47 C 1048.14 92.30 1048.16 79.14 1048.14 65.97 C 1048.14 61.33 1047.41 56.37 1044.35 52.70 C 1040.96 48.63 1035.68 46.85 1030.59 46.18 C 1021.14 44.98 1011.37 46.16 1002.47 49.56 Z" />
<path fill="#000000" opacity="1.00" d=" M 1153.47 45.65 C 1156.59 44.98 1160.06 45.54 1162.54 47.66 C 1166.37 51.25 1171.46 55.13 1170.87 61.04 C 1170.56 69.13 1160.13 74.51 1153.63 69.31 C 1150.82 66.57 1147.47 64.11 1145.71 60.50 C 1143.05 54.49 1147.25 47.13 1153.47 45.65 M 1152.14 47.23 C 1149.02 48.65 1146.53 51.64 1146.12 55.08 C 1145.10 60.78 1150.23 66.52 1155.97 66.43 C 1161.81 66.59 1166.91 60.67 1165.83 54.92 C 1165.04 48.81 1157.81 44.48 1152.14 47.23 Z" />
<path fill="#000000" opacity="1.00" d=" M 404.50 45.99 C 409.62 45.92 414.74 45.93 419.87 45.98 C 419.87 47.23 419.87 48.47 419.88 49.72 C 421.15 49.75 422.43 49.78 423.71 49.81 C 423.74 62.20 423.72 74.58 423.72 86.97 C 423.71 89.40 423.98 91.82 424.27 94.23 C 431.51 95.76 436.13 88.84 440.00 83.95 C 440.02 71.29 440.00 58.62 440.01 45.96 C 445.12 45.94 450.24 45.95 455.35 45.96 C 455.35 47.22 455.35 48.48 455.35 49.75 C 456.61 49.75 457.87 49.75 459.13 49.75 C 459.26 69.92 459.15 90.10 459.19 110.27 C 454.73 110.34 450.27 110.31 445.81 110.30 C 445.74 109.06 445.67 107.81 445.62 106.57 C 444.20 106.52 442.79 106.47 441.39 106.41 C 434.56 112.46 423.37 113.62 415.80 108.32 C 412.40 105.07 408.45 102.04 406.60 97.58 C 404.85 93.64 404.52 89.26 404.50 84.99 C 404.50 71.99 404.52 58.99 404.50 45.99 M 405.53 47.00 C 405.54 59.99 405.50 72.98 405.54 85.97 C 405.59 91.88 406.73 98.46 411.40 102.55 C 416.92 107.60 425.41 107.73 432.02 104.92 C 436.27 103.15 439.15 99.41 442.56 96.48 C 442.80 99.47 442.92 102.47 443.01 105.48 C 446.76 105.48 450.52 105.48 454.27 105.47 C 454.32 85.98 454.20 66.49 454.34 46.99 C 449.91 46.98 445.48 46.98 441.06 46.99 C 441.05 58.33 441.03 69.66 441.08 81.00 C 441.66 85.67 437.37 88.59 434.62 91.67 C 431.66 94.88 426.57 96.85 422.53 94.47 C 419.05 92.28 418.88 87.72 418.80 84.05 C 418.80 71.70 418.81 59.35 418.81 47.01 C 414.38 46.98 409.96 46.98 405.53 47.00 Z" />
<path fill="#000000" opacity="1.00" d=" M 671.02 45.96 C 681.86 45.94 692.71 45.94 703.55 45.96 C 703.54 47.21 703.53 48.46 703.54 49.72 C 704.80 49.74 706.08 49.77 707.37 49.81 C 707.39 64.65 707.36 79.49 707.38 94.33 C 711.83 94.32 716.29 94.33 720.75 94.31 C 720.73 95.57 720.72 96.83 720.73 98.09 C 721.65 98.09 723.48 98.10 724.40 98.10 C 724.56 102.17 724.49 106.23 724.49 110.30 C 707.25 110.32 690.02 110.33 672.78 110.30 C 672.75 109.03 672.74 107.77 672.73 106.51 C 671.79 106.51 669.93 106.52 669.00 106.53 C 668.96 102.46 668.97 98.39 668.99 94.33 C 675.27 94.32 681.56 94.33 687.84 94.32 C 687.84 83.54 687.84 72.75 687.84 61.96 C 683.53 61.96 679.23 61.97 674.92 61.95 C 674.86 60.67 674.80 59.39 674.76 58.11 C 673.51 58.11 672.26 58.11 671.02 58.11 C 671.01 54.06 671.01 50.01 671.02 45.96 M 672.07 46.99 C 672.06 50.36 672.06 53.73 672.07 57.10 C 677.69 57.04 683.31 57.04 688.93 57.06 C 688.77 69.84 688.93 82.62 688.83 95.40 C 682.55 95.38 676.28 95.38 670.01 95.39 C 670.01 98.75 670.01 102.12 670.02 105.48 C 686.55 105.50 703.08 105.44 719.61 105.51 C 719.66 102.13 719.67 98.76 719.66 95.38 C 713.96 95.39 708.25 95.37 702.56 95.41 C 702.41 79.27 702.54 63.13 702.49 46.99 C 692.35 46.98 682.21 46.99 672.07 46.99 Z" />
<path fill="#000000" opacity="1.00" d=" M 727.69 45.96 C 733.35 45.96 739.02 45.89 744.69 46.01 C 745.11 47.17 745.55 48.32 746.00 49.48 C 746.64 49.65 747.93 50.00 748.57 50.17 C 752.96 62.11 757.58 73.98 761.59 86.05 C 766.19 72.60 771.28 59.33 776.08 45.95 C 781.53 45.95 786.99 45.94 792.45 45.96 C 792.12 46.91 791.46 48.81 791.13 49.77 C 792.84 49.76 794.59 49.76 796.33 49.78 C 788.56 69.99 780.50 90.09 772.66 110.28 C 766.88 110.34 761.11 110.34 755.34 110.28 C 754.90 109.03 754.46 107.79 754.03 106.55 C 753.41 106.55 752.18 106.54 751.57 106.53 C 743.70 86.31 735.45 66.23 727.69 45.96 M 729.11 47.02 C 736.79 66.48 744.62 85.88 752.19 105.37 C 757.47 105.56 762.76 105.47 768.05 105.47 C 775.73 85.99 783.34 66.49 791.03 47.01 C 786.29 46.98 781.55 46.99 776.82 46.98 C 771.29 62.02 765.81 77.09 760.43 92.18 C 754.83 77.17 749.48 62.05 743.95 47.00 C 739.00 46.98 734.06 46.97 729.11 47.02 Z" />
<path fill="#000000" opacity="1.00" d=" M 869.02 45.96 C 879.86 45.94 890.71 45.94 901.55 45.96 C 901.54 47.21 901.53 48.46 901.54 49.72 C 902.80 49.74 904.08 49.77 905.36 49.81 C 905.39 64.65 905.36 79.49 905.38 94.33 C 909.83 94.32 914.29 94.33 918.75 94.31 C 918.73 95.57 918.72 96.83 918.73 98.09 C 919.65 98.09 921.49 98.10 922.40 98.10 C 922.56 102.17 922.49 106.23 922.49 110.30 C 905.26 110.33 888.04 110.31 870.81 110.31 C 870.76 109.04 870.73 107.76 870.70 106.50 C 869.78 106.51 867.94 106.53 867.02 106.54 C 866.95 102.47 866.96 98.40 866.99 94.33 C 873.27 94.32 879.56 94.33 885.85 94.32 C 885.84 83.54 885.84 72.75 885.84 61.96 C 881.53 61.96 877.22 61.97 872.92 61.95 C 872.85 60.67 872.80 59.39 872.76 58.11 C 871.51 58.11 870.26 58.11 869.02 58.11 C 869.01 54.06 869.01 50.01 869.02 45.96 M 870.07 46.99 C 870.06 50.36 870.06 53.73 870.07 57.10 C 875.69 57.04 881.31 57.04 886.94 57.07 C 886.77 69.84 886.92 82.62 886.83 95.40 C 880.56 95.38 874.28 95.38 868.02 95.39 C 868.01 98.75 868.01 102.11 868.01 105.47 C 884.54 105.52 901.06 105.42 917.58 105.53 C 917.66 102.15 917.67 98.77 917.66 95.39 C 911.95 95.38 906.24 95.38 900.53 95.39 C 900.44 79.26 900.52 63.13 900.49 47.00 C 890.35 46.98 880.21 46.99 870.07 46.99 Z" />
<path fill="#000000" opacity="1.00" d=" M 354.52 60.39 C 358.90 53.69 370.35 53.54 374.63 60.41 C 376.59 63.26 376.76 66.80 377.13 70.12 C 368.44 70.11 359.76 70.22 351.07 70.05 C 351.83 66.71 352.31 63.15 354.52 60.39 M 363.07 61.42 C 359.97 62.82 358.53 66.10 356.87 68.84 C 363.24 69.30 369.64 68.98 376.02 69.07 C 375.50 66.51 375.70 63.45 373.75 61.45 C 370.50 59.66 366.38 59.93 363.07 61.42 Z" />
<path fill="#000000" opacity="1.00" d=" M 816.52 60.39 C 820.89 53.70 832.32 53.54 836.62 60.39 C 838.59 63.24 838.76 66.79 839.13 70.12 C 830.44 70.11 821.76 70.22 813.07 70.05 C 813.82 66.71 814.31 63.15 816.52 60.39 M 825.12 61.39 C 821.98 62.78 820.52 66.08 818.89 68.87 C 825.25 69.27 831.64 68.99 838.01 69.07 C 837.49 66.51 837.70 63.45 835.76 61.45 C 832.52 59.67 828.43 59.93 825.12 61.39 Z" />
<path fill="#000000" opacity="1.00" d=" M 157.52 81.65 C 163.31 78.00 170.49 79.40 176.96 79.14 C 176.95 82.07 176.93 85.00 176.94 87.93 C 172.31 92.57 166.24 98.39 159.09 95.90 C 152.78 94.33 152.25 84.77 157.52 81.65 M 160.99 87.08 C 158.69 89.04 158.74 92.29 159.09 95.03 C 165.76 97.00 171.52 92.20 175.62 87.54 C 175.83 86.40 175.99 85.25 176.09 84.10 C 171.01 84.13 165.14 83.56 160.99 87.08 Z" />
<path fill="#000000" opacity="1.00" d=" M 1015.56 81.62 C 1021.34 78.00 1028.50 79.40 1034.96 79.14 C 1034.94 82.07 1034.93 85.00 1034.94 87.94 C 1030.31 92.56 1024.24 98.39 1017.10 95.91 C 1010.76 94.34 1010.25 84.73 1015.56 81.62 M 1018.99 87.07 C 1016.69 89.04 1016.73 92.28 1017.09 95.03 C 1023.73 96.98 1029.50 92.24 1033.57 87.58 C 1033.84 86.44 1034.01 85.28 1034.08 84.10 C 1029.00 84.13 1023.14 83.57 1018.99 87.07 Z" />
<path fill="#000000" opacity="1.00" d=" M 1145.72 95.45 C 1144.70 90.08 1148.70 84.29 1154.23 83.73 C 1158.57 83.05 1162.54 85.51 1165.25 88.71 C 1174.56 96.23 1173.93 111.09 1166.97 119.97 C 1160.52 128.25 1149.46 131.07 1139.39 130.96 C 1139.35 129.61 1139.32 128.26 1139.31 126.91 C 1138.38 126.97 1136.51 127.10 1135.58 127.17 C 1135.53 123.75 1135.54 120.33 1135.54 116.92 C 1140.24 116.45 1145.52 116.76 1149.39 113.52 C 1151.80 111.99 1152.80 108.78 1151.84 106.11 C 1150.46 102.18 1146.22 99.77 1145.72 95.45 M 1150.54 86.30 C 1146.58 88.90 1145.36 94.90 1148.13 98.77 C 1149.94 101.37 1152.81 103.53 1153.12 106.91 C 1153.75 110.09 1152.03 113.45 1149.25 115.02 C 1145.51 117.50 1140.90 117.59 1136.59 117.81 C 1136.58 120.57 1136.58 123.32 1136.59 126.08 C 1144.95 125.91 1153.77 123.85 1160.04 117.99 C 1166.17 112.18 1168.51 103.01 1166.67 94.87 C 1165.81 91.12 1163.51 87.65 1160.13 85.74 C 1157.14 84.31 1153.24 84.20 1150.54 86.30 Z" />
</g>
<g id="#0070c0ff">
<path fill="#0070c0" opacity="1.00" d=" M 691.21 22.18 C 695.82 19.95 701.98 22.69 703.20 27.72 C 704.68 32.29 701.66 37.61 696.94 38.59 C 692.02 40.02 686.39 36.13 686.17 30.99 C 685.71 27.34 687.90 23.69 691.21 22.18 Z" />
<path fill="#0070c0" opacity="1.00" d=" M 889.19 22.18 C 894.06 19.79 900.55 23.03 901.38 28.45 C 902.50 33.17 898.92 38.22 894.10 38.75 C 889.38 39.63 884.37 35.80 884.17 30.97 C 883.72 27.34 885.90 23.70 889.19 22.18 Z" />
<path fill="#0070c0" opacity="1.00" d=" M 273.64 23.69 C 278.06 23.68 282.49 23.68 286.92 23.69 C 286.98 34.28 287.04 44.87 286.22 55.44 C 289.63 52.34 292.66 48.49 297.21 47.03 C 303.68 44.80 311.76 45.21 316.93 50.15 C 321.37 54.51 322.41 61.04 322.42 67.00 C 322.45 79.82 322.42 92.65 322.43 105.47 C 318.00 105.49 313.57 105.49 309.15 105.44 C 309.18 92.96 309.20 80.48 309.15 68.00 C 309.05 64.19 308.67 59.21 304.56 57.54 C 299.60 55.53 294.68 58.88 291.52 62.49 C 289.43 64.96 286.41 67.42 286.90 71.04 C 286.93 82.51 286.92 93.99 286.92 105.47 C 282.49 105.48 278.06 105.48 273.63 105.47 C 273.63 78.21 273.62 50.95 273.64 23.69 Z" />
<path fill="#0070c0" opacity="1.00" d=" M 606.06 23.69 C 616.20 23.68 626.34 23.69 636.49 23.69 C 636.54 47.59 636.42 71.50 636.54 95.40 C 642.25 95.37 647.95 95.39 653.66 95.39 C 653.67 98.76 653.66 102.14 653.61 105.51 C 637.08 105.44 620.55 105.50 604.02 105.48 C 604.01 102.11 604.01 98.75 604.01 95.39 C 610.28 95.38 616.55 95.37 622.82 95.40 C 622.94 74.88 622.76 54.37 622.93 33.85 C 617.31 33.80 611.69 33.82 606.08 33.83 C 606.06 30.45 606.06 27.07 606.06 23.69 Z" />
<path fill="#0070c0" opacity="1.00" d=" M 218.96 31.63 C 223.50 30.44 228.05 29.25 232.60 28.10 C 232.57 34.40 232.58 40.69 232.59 46.99 C 240.31 47.00 248.02 46.95 255.74 47.02 C 255.73 50.35 255.73 53.68 255.74 57.01 C 248.02 57.10 240.31 57.03 232.60 57.05 C 232.62 66.66 232.47 76.28 232.65 85.89 C 232.59 90.05 234.49 95.02 239.02 95.95 C 244.58 97.08 250.28 95.78 255.73 94.65 C 255.73 98.09 255.73 101.55 255.69 105.00 C 246.52 106.69 236.49 108.29 227.70 104.24 C 221.94 101.65 219.29 95.18 219.11 89.19 C 218.77 78.49 219.05 67.77 218.98 57.06 C 213.64 57.04 208.31 57.04 202.98 57.10 C 202.97 53.73 202.97 50.36 202.97 46.99 C 208.30 46.98 213.63 46.99 218.96 46.99 C 218.97 41.87 218.97 36.75 218.96 31.63 Z" />
<path fill="#0070c0" opacity="1.00" d=" M 556.24 29.31 C 565.43 27.69 576.04 29.28 582.72 36.32 C 589.30 43.09 591.43 52.84 592.01 61.98 C 592.65 73.29 591.61 85.46 585.01 95.05 C 579.62 103.19 569.51 107.25 559.95 106.67 C 552.30 106.54 544.42 103.58 539.64 97.40 C 533.42 89.38 531.92 78.86 531.74 68.99 C 531.78 59.02 533.20 48.44 539.16 40.14 C 543.15 34.45 549.42 30.55 556.24 29.31 M 557.26 41.33 C 549.69 43.65 547.03 52.21 546.31 59.28 C 545.63 68.74 545.33 78.84 549.50 87.61 C 553.76 96.76 568.58 97.25 573.73 88.73 C 577.70 82.28 577.99 74.40 578.05 67.04 C 577.82 60.04 577.41 52.58 573.67 46.44 C 570.31 41.02 563.04 39.67 557.26 41.33 Z" />
<path fill="#0070c0" opacity="1.00" d=" M 73.84 29.93 C 79.00 29.92 84.15 29.91 89.30 29.93 C 92.90 41.40 96.39 52.90 99.52 64.50 C 101.46 60.14 102.25 55.41 103.70 50.89 C 105.87 43.94 108.13 37.01 110.24 30.03 C 115.51 29.85 120.78 29.93 126.05 29.93 C 127.24 55.12 128.54 80.30 129.78 105.49 C 125.91 105.47 122.04 105.47 118.17 105.50 C 117.40 86.32 116.90 67.13 116.30 47.94 C 116.22 46.73 115.91 45.55 115.65 44.36 C 111.28 57.06 107.37 69.92 103.12 82.67 C 100.37 82.68 97.61 82.69 94.86 82.69 C 91.51 71.16 87.93 59.70 84.93 48.07 C 84.61 46.75 83.89 45.57 83.24 44.40 C 82.41 64.75 82.07 85.12 81.35 105.48 C 77.62 105.48 73.90 105.48 70.18 105.47 C 71.37 80.29 72.68 55.11 73.84 29.93 Z" />
<path fill="#0070c0" opacity="1.00" d=" M 144.46 49.58 C 153.52 46.08 163.51 44.94 173.13 46.26 C 178.29 46.99 183.63 48.99 186.82 53.31 C 189.73 57.22 190.18 62.28 190.16 66.99 C 190.13 79.82 190.15 92.65 190.14 105.48 C 186.43 105.48 182.72 105.48 179.00 105.48 C 178.91 102.82 178.80 100.17 178.61 97.52 C 174.72 100.33 171.29 104.03 166.54 105.38 C 160.02 107.40 152.25 107.58 146.47 103.47 C 140.60 99.32 138.96 91.25 140.51 84.56 C 141.68 79.69 145.44 75.83 149.90 73.74 C 158.28 69.56 167.91 70.04 177.02 70.00 C 176.94 65.14 177.02 58.52 171.40 56.64 C 162.51 53.88 152.89 56.39 144.50 59.74 C 144.53 56.36 144.53 52.97 144.46 49.58 M 157.52 81.65 C 152.25 84.77 152.78 94.33 159.09 95.90 C 166.24 98.39 172.31 92.57 176.94 87.93 C 176.93 85.00 176.95 82.07 176.96 79.14 C 170.49 79.40 163.31 78.00 157.52 81.65 Z" />
<path fill="#0070c0" opacity="1.00" d=" M 343.85 55.96 C 352.64 43.67 372.63 42.27 383.45 52.56 C 390.39 59.52 391.05 70.05 390.14 79.30 C 377.07 79.30 363.99 79.31 350.91 79.30 C 351.03 83.97 352.16 88.98 355.84 92.19 C 360.18 96.22 366.51 96.76 372.14 96.20 C 377.27 95.90 382.34 95.05 387.30 93.71 C 387.24 97.15 387.20 100.59 387.18 104.03 C 376.18 106.50 364.24 108.54 353.35 104.56 C 345.42 101.74 339.92 94.22 338.41 86.10 C 336.54 75.90 337.62 64.56 343.85 55.96 M 354.52 60.39 C 352.31 63.15 351.83 66.71 351.07 70.05 C 359.76 70.22 368.44 70.11 377.13 70.12 C 376.76 66.80 376.59 63.26 374.63 60.41 C 370.35 53.54 358.90 53.69 354.52 60.39 Z" />
<path fill="#0070c0" opacity="1.00" d=" M 478.43 51.38 C 486.60 45.01 497.74 45.28 507.54 46.20 C 510.03 46.68 513.02 46.48 515.09 47.95 C 515.48 51.26 515.22 54.60 515.21 57.92 C 509.25 56.24 503.09 55.20 496.90 55.24 C 493.86 55.34 490.47 55.92 488.39 58.34 C 486.32 60.66 486.81 64.78 489.58 66.34 C 497.65 71.31 508.13 71.26 515.49 77.57 C 522.83 84.69 520.13 98.58 511.00 102.95 C 499.13 108.97 485.13 106.91 472.59 104.43 C 472.62 100.57 472.63 96.71 472.62 92.85 C 476.91 94.32 481.25 95.76 485.79 96.18 L 486.21 96.23 C 491.60 96.85 497.77 97.75 502.55 94.56 C 505.70 92.56 506.07 87.29 502.70 85.32 C 494.93 80.30 484.69 80.57 477.47 74.50 C 470.63 68.67 471.26 56.70 478.43 51.38 Z" />
<path fill="#0070c0" opacity="1.00" d=" M 805.84 55.99 C 814.61 43.68 834.59 42.26 845.42 52.53 C 852.39 59.49 853.05 70.04 852.14 79.30 C 839.06 79.31 825.98 79.30 812.91 79.30 C 813.06 83.75 814.01 88.51 817.35 91.72 C 821.48 95.96 827.82 96.78 833.45 96.25 C 838.81 95.96 844.12 95.12 849.30 93.71 C 849.24 97.15 849.20 100.58 849.19 104.02 C 838.21 106.51 826.27 108.53 815.39 104.57 C 807.45 101.76 801.94 94.25 800.41 86.12 C 798.54 75.93 799.61 64.58 805.84 55.99 M 816.52 60.39 C 814.31 63.15 813.82 66.71 813.07 70.05 C 821.76 70.22 830.44 70.11 839.13 70.12 C 838.76 66.79 838.59 63.24 836.62 60.39 C 832.32 53.54 820.89 53.70 816.52 60.39 Z" />
<path fill="#0070c0" opacity="1.00" d=" M 958.61 47.53 C 965.36 44.75 974.25 44.85 979.64 50.36 C 984.51 55.22 985.19 62.53 985.30 69.05 C 980.91 69.05 976.52 69.06 972.13 69.11 C 971.76 65.01 971.79 59.64 967.63 57.39 C 962.36 55.15 957.00 58.78 953.75 62.75 C 952.10 64.92 949.60 67.01 949.68 69.96 C 949.60 81.81 949.79 93.67 949.60 105.52 C 945.08 105.47 940.57 105.47 936.06 105.47 C 936.07 85.98 936.06 66.49 936.07 46.99 C 940.05 46.98 944.03 46.98 948.02 46.99 C 948.15 50.07 948.32 53.15 948.62 56.21 C 951.53 52.90 954.33 49.15 958.61 47.53 Z" />
<path fill="#0070c0" opacity="1.00" d=" M 1002.47 49.56 C 1011.37 46.16 1021.14 44.98 1030.59 46.18 C 1035.68 46.85 1040.96 48.63 1044.35 52.70 C 1047.41 56.37 1048.14 61.33 1048.14 65.97 C 1048.16 79.14 1048.14 92.30 1048.14 105.47 C 1044.42 105.48 1040.71 105.48 1037.01 105.48 C 1036.90 102.84 1036.78 100.20 1036.60 97.56 C 1032.70 100.32 1029.31 104.01 1024.59 105.36 C 1018.06 107.39 1010.29 107.59 1004.51 103.49 C 998.43 99.22 996.81 90.74 998.70 83.90 C 1000.34 78.05 1005.69 74.17 1011.24 72.34 C 1018.86 69.62 1027.06 70.08 1035.02 69.99 C 1034.95 65.11 1035.00 58.47 1029.34 56.61 C 1020.46 53.90 1010.87 56.40 1002.50 59.75 C 1002.52 56.35 1002.52 52.95 1002.47 49.56 M 1015.56 81.62 C 1010.25 84.73 1010.76 94.34 1017.10 95.91 C 1024.24 98.39 1030.31 92.56 1034.94 87.94 C 1034.93 85.00 1034.94 82.07 1034.96 79.14 C 1028.50 79.40 1021.34 78.00 1015.56 81.62 Z" />
<path fill="#0070c0" opacity="1.00" d=" M 405.53 47.00 C 409.96 46.98 414.38 46.98 418.81 47.01 C 418.81 59.35 418.80 71.70 418.80 84.05 C 418.88 87.72 419.05 92.28 422.53 94.47 C 426.57 96.85 431.66 94.88 434.62 91.67 C 437.37 88.59 441.66 85.67 441.08 81.00 C 441.03 69.66 441.05 58.33 441.06 46.99 C 445.48 46.98 449.91 46.98 454.34 46.99 C 454.20 66.49 454.32 85.98 454.27 105.47 C 450.52 105.48 446.76 105.48 443.01 105.48 C 442.92 102.47 442.80 99.47 442.56 96.48 C 439.15 99.41 436.27 103.15 432.02 104.92 C 425.41 107.73 416.92 107.60 411.40 102.55 C 406.73 98.46 405.59 91.88 405.54 85.97 C 405.50 72.98 405.54 59.99 405.53 47.00 Z" />
<path fill="#0070c0" opacity="1.00" d=" M 672.07 46.99 C 682.21 46.99 692.35 46.98 702.49 46.99 C 702.54 63.13 702.41 79.27 702.56 95.41 C 708.25 95.37 713.96 95.39 719.66 95.38 C 719.67 98.76 719.66 102.13 719.61 105.51 C 703.08 105.44 686.55 105.50 670.02 105.48 C 670.01 102.12 670.01 98.75 670.01 95.39 C 676.28 95.38 682.55 95.38 688.83 95.40 C 688.93 82.62 688.77 69.84 688.93 57.06 C 683.31 57.04 677.69 57.04 672.07 57.10 C 672.06 53.73 672.06 50.36 672.07 46.99 Z" />
<path fill="#0070c0" opacity="1.00" d=" M 729.11 47.02 C 734.06 46.97 739.00 46.98 743.95 47.00 C 749.48 62.05 754.83 77.17 760.43 92.18 C 765.81 77.09 771.29 62.02 776.82 46.98 C 781.55 46.99 786.29 46.98 791.03 47.01 C 783.34 66.49 775.73 85.99 768.05 105.47 C 762.76 105.47 757.47 105.56 752.19 105.37 C 744.62 85.88 736.79 66.48 729.11 47.02 Z" />
<path fill="#0070c0" opacity="1.00" d=" M 870.07 46.99 C 880.21 46.99 890.35 46.98 900.49 47.00 C 900.52 63.13 900.44 79.26 900.53 95.39 C 906.24 95.38 911.95 95.38 917.66 95.39 C 917.67 98.77 917.66 102.15 917.58 105.53 C 901.06 105.42 884.54 105.52 868.01 105.47 C 868.01 102.11 868.01 98.75 868.02 95.39 C 874.28 95.38 880.56 95.38 886.83 95.40 C 886.92 82.62 886.77 69.84 886.94 57.07 C 881.31 57.04 875.69 57.04 870.07 57.10 C 870.06 53.73 870.06 50.36 870.07 46.99 Z" />
</g>
</svg>
